<?xml version="1.0" encoding="UTF-8" standalone="no"?>
<svg
   xmlns:osb="http://www.openswatchbook.org/uri/2009/osb"
   xmlns:dc="http://purl.org/dc/elements/1.1/"
   xmlns:cc="http://creativecommons.org/ns#"
   xmlns:rdf="http://www.w3.org/1999/02/22-rdf-syntax-ns#"
   xmlns:svg="http://www.w3.org/2000/svg"
   xmlns="http://www.w3.org/2000/svg"
   version="1.1"
   id="svg2"
   viewBox="0 0 48 48"
   height="48"
   width="48">
  <metadata
     id="metadata10">
    <rdf:RDF>
      <cc:Work
         rdf:about="">
        <dc:format>image/svg+xml</dc:format>
        <dc:type
           rdf:resource="http://purl.org/dc/dcmitype/StillImage" />
        <dc:title></dc:title>
      </cc:Work>
    </rdf:RDF>
  </metadata>
  <defs
     id="defs8">
    <linearGradient
       osb:paint="solid"
       id="linearGradient4138">
      <stop
         id="stop4140"
         offset="0"
         style="stop-color:#000000;stop-opacity:1;" />
    </linearGradient>
  </defs>
  <path
     id="path4185"
     d="M 38.822266 5.1777344 L 36 8 L 38.423828 11.359375 L 38.523438 42.191406 L 13.023438 42.191406 L 12 40 L 9.1777344 42.822266 L 32.929688 66.574219 L 38.603516 66.574219 L 38.603516 66.806641 L 100.48633 66.841797 L 38.822266 5.1777344 z "
     style="opacity:0.15;fill:#000000;fill-opacity:1;fill-rule:evenodd;stroke:#000000;stroke-width:0;stroke-linecap:butt;stroke-linejoin:miter;stroke-miterlimit:4;stroke-dasharray:none;stroke-opacity:1" />
  <path
     id="path4"
     fill="white"
     d="M36 4.02L12 4C9.79 4 8 5.79 8 8v32c0 2.21 1.79 4 4 4h24c2.21 0 4-1.79 4-4V8c0-2.21-1.79-3.98-4-3.98zM36 40H12V21.95h24V40zm0-22H12V8h24v10zm-20-8h4v6h-4zm0 14h4v10h-4z" />
  <path
     id="path4142"
     d="m 12,13 0,-5 12,0 12,0 0,5 0,5 -12,0 -12,0 0,-5 z m 8,0 0,-3 -2,0 -2,0 0,3 0,3 2,0 2,0 0,-3 z"
     style="opacity:0.15;fill:#000000;fill-opacity:1;stroke-width:28.9;stroke-linecap:butt;stroke-linejoin:miter;stroke-miterlimit:4;stroke-dasharray:none" />
  <path
     id="path4148"
     d="m 12,31 0,-9 12,0 12,0 0,9 0,9 -12,0 -12,0 0,-9 z m 8,-2 0,-5 -2,0 -2,0 0,5 0,5 2,0 2,0 0,-5 z"
     style="opacity:0.15;fill:#000000;fill-opacity:1;stroke-width:28.9;stroke-linecap:butt;stroke-linejoin:miter;stroke-miterlimit:4;stroke-dasharray:none" />
</svg>
